<svg width="682" height="682" viewBox="0 0 682 682" fill="none" xmlns="http://www.w3.org/2000/svg">
<path d="M270.56 0H50C22.3858 0 0 22.3858 0 50V270.56C0 298.174 22.3858 320.56 50 320.56H270.56C298.174 320.56 320.56 298.174 320.56 270.56V50C320.56 22.3858 298.174 0 270.56 0Z" fill="#377DFF"/>
<path d="M270.56 360.64H50C22.3858 360.64 0 383.026 0 410.64V631.2C0 658.814 22.3858 681.2 50 681.2H270.56C298.174 681.2 320.56 658.814 320.56 631.2V410.64C320.56 383.026 298.174 360.64 270.56 360.64Z" fill="#377DFF"/>
<path d="M631.2 0H410.64C383.026 0 360.64 22.3858 360.64 50V270.56C360.64 298.174 383.026 320.56 410.64 320.56H631.2C658.814 320.56 681.2 298.174 681.2 270.56V50C681.2 22.3858 658.814 0 631.2 0Z" fill="#377DFF"/>
<path d="M530.09 360.64H511.75C428.294 360.64 360.64 428.294 360.64 511.75V530.09C360.64 613.546 428.294 681.2 511.75 681.2H530.09C613.546 681.2 681.2 613.546 681.2 530.09V511.75C681.2 428.294 613.546 360.64 530.09 360.64Z" fill="#242526"/>
</svg>
