<svg width="1000" height="1000" viewBox="0 0 1000 1000" fill="none" xmlns="http://www.w3.org/2000/svg">
<g clip-path="url(#clip0_1_2)">
<path d="M1000 0H0V1000H1000V0Z" fill="white"/>
<path d="M412.604 77H137.39C102.933 77 75 104.769 75 139.023V412.618C75 446.873 102.933 474.641 137.39 474.641H412.604C447.061 474.641 474.994 446.873 474.994 412.618V139.023C474.994 104.769 447.061 77 412.604 77Z" fill="#377DFF"/>
<path d="M412.604 524.359H137.39C102.933 524.359 75 552.127 75 586.382V859.977C75 894.231 102.933 922 137.39 922H412.604C447.061 922 474.994 894.231 474.994 859.977V586.382C474.994 552.127 447.061 524.359 412.604 524.359Z" fill="#377DFF"/>
<path d="M862.61 77H587.396C552.939 77 525.006 104.769 525.006 139.023V412.618C525.006 446.873 552.939 474.641 587.396 474.641H862.61C897.067 474.641 925 446.873 925 412.618V139.023C925 104.769 897.067 77 862.61 77Z" fill="#377DFF"/>
<path d="M736.445 524.359H713.561C609.425 524.359 525.006 608.281 525.006 711.804V734.554C525.006 838.078 609.425 922 713.561 922H736.445C840.581 922 925 838.078 925 734.554V711.804C925 608.281 840.581 524.359 736.445 524.359Z" fill="#242526"/>
</g>
<defs>
<clipPath id="clip0_1_2">
<rect width="1000" height="1000" rx="80" fill="white"/>
</clipPath>
</defs>
</svg>
